<mxfile host="app.diagrams.net" modified="2023-02-26T09:26:41.325Z" agent="5.0 (X11; Linux x86_64) AppleWebKit/537.36 (KHTML, like Gecko) Chrome/110.0.0.0 Safari/537.36" etag="DsHHQhOGMN3DZCgFZlb-" version="14.8.4" type="github">
  <diagram id="3P_6MCCChBtq8M6MrG2V" name="Page-1">
    <mxGraphModel dx="2086" dy="1362" grid="1" gridSize="10" guides="1" tooltips="1" connect="1" arrows="1" fold="1" page="1" pageScale="1" pageWidth="827" pageHeight="1169" math="0" shadow="0">
      <root>
        <mxCell id="0" />
        <mxCell id="1" parent="0" />
        <mxCell id="BulkSB2tPgcpnhCntLE--1" value="" style="rounded=0;whiteSpace=wrap;html=1;" vertex="1" parent="1">
          <mxGeometry x="-230" y="40" width="1040" height="730" as="geometry" />
        </mxCell>
        <mxCell id="BulkSB2tPgcpnhCntLE--2" value="" style="outlineConnect=0;dashed=0;verticalLabelPosition=bottom;verticalAlign=top;align=center;html=1;shape=mxgraph.aws3.cloud_2;fillColor=#F58534;gradientColor=none;" vertex="1" parent="1">
          <mxGeometry x="-230" y="40" width="40" height="40" as="geometry" />
        </mxCell>
        <mxCell id="BulkSB2tPgcpnhCntLE--15" value="VPC" style="outlineConnect=0;gradientColor=none;html=1;whiteSpace=wrap;fontSize=12;fontStyle=0;shape=mxgraph.aws4.group;grIcon=mxgraph.aws4.group_vpc;strokeColor=#879196;fillColor=none;verticalAlign=top;align=left;spacingLeft=30;fontColor=#879196;dashed=0;" vertex="1" parent="1">
          <mxGeometry x="60" y="90" width="700" height="660" as="geometry" />
        </mxCell>
        <mxCell id="BulkSB2tPgcpnhCntLE--16" value="Availability zone" style="outlineConnect=0;gradientColor=none;html=1;whiteSpace=wrap;fontSize=12;fontStyle=0;shape=mxgraph.aws4.group;grIcon=mxgraph.aws4.group_availability_zone;strokeColor=#545B64;fillColor=none;verticalAlign=top;align=left;spacingLeft=30;fontColor=#545B64;dashed=1;" vertex="1" parent="1">
          <mxGeometry x="100" y="120" width="610" height="600" as="geometry" />
        </mxCell>
        <mxCell id="BulkSB2tPgcpnhCntLE--17" value="Public" style="outlineConnect=0;html=1;whiteSpace=wrap;fontSize=12;fontStyle=0;shape=mxgraph.aws4.group;grIcon=mxgraph.aws4.group_subnet;strokeColor=#82b366;fillColor=#d5e8d4;verticalAlign=top;align=left;spacingLeft=30;dashed=0;" vertex="1" parent="1">
          <mxGeometry x="150" y="175" width="490" height="235" as="geometry" />
        </mxCell>
        <mxCell id="BulkSB2tPgcpnhCntLE--20" value="Internet" style="aspect=fixed;perimeter=ellipsePerimeter;html=1;align=center;shadow=0;dashed=0;spacingTop=3;image;image=img/lib/active_directory/internet_cloud.svg;" vertex="1" parent="1">
          <mxGeometry x="-420" y="249.25" width="150.79" height="95" as="geometry" />
        </mxCell>
        <mxCell id="BulkSB2tPgcpnhCntLE--24" value="Peering connection" style="outlineConnect=0;fontColor=#232F3E;gradientColor=none;fillColor=#5A30B5;strokeColor=none;dashed=0;verticalLabelPosition=bottom;verticalAlign=top;align=center;html=1;fontSize=12;fontStyle=0;aspect=fixed;pointerEvents=1;shape=mxgraph.aws4.peering;" vertex="1" parent="1">
          <mxGeometry x="450" y="830" width="78" height="78" as="geometry" />
        </mxCell>
        <mxCell id="BulkSB2tPgcpnhCntLE--25" value="Network load balance" style="outlineConnect=0;fontColor=#232F3E;gradientColor=none;fillColor=#5A30B5;strokeColor=none;dashed=0;verticalLabelPosition=bottom;verticalAlign=top;align=center;html=1;fontSize=12;fontStyle=0;aspect=fixed;pointerEvents=1;shape=mxgraph.aws4.network_load_balancer;" vertex="1" parent="1">
          <mxGeometry x="-88" y="830" width="78" height="78" as="geometry" />
        </mxCell>
        <mxCell id="BulkSB2tPgcpnhCntLE--26" value="Nat gateway" style="outlineConnect=0;fontColor=#232F3E;gradientColor=none;fillColor=#5A30B5;strokeColor=none;dashed=0;verticalLabelPosition=bottom;verticalAlign=top;align=center;html=1;fontSize=12;fontStyle=0;aspect=fixed;pointerEvents=1;shape=mxgraph.aws4.nat_gateway;" vertex="1" parent="1">
          <mxGeometry x="460.75" y="264.25" width="56.5" height="56.5" as="geometry" />
        </mxCell>
        <mxCell id="BulkSB2tPgcpnhCntLE--27" value="internet gateway" style="outlineConnect=0;fontColor=#232F3E;gradientColor=none;fillColor=#5A30B5;strokeColor=none;dashed=0;verticalLabelPosition=bottom;verticalAlign=top;align=center;html=1;fontSize=12;fontStyle=0;aspect=fixed;pointerEvents=1;shape=mxgraph.aws4.internet_gateway;" vertex="1" parent="1">
          <mxGeometry x="-138" y="270.75" width="50" height="50" as="geometry" />
        </mxCell>
        <mxCell id="BulkSB2tPgcpnhCntLE--29" value="Private" style="outlineConnect=0;html=1;whiteSpace=wrap;fontSize=12;fontStyle=0;shape=mxgraph.aws4.group;grIcon=mxgraph.aws4.group_subnet;strokeColor=#9673a6;fillColor=#e1d5e7;verticalAlign=top;align=left;spacingLeft=30;dashed=0;" vertex="1" parent="1">
          <mxGeometry x="150" y="470" width="490" height="205" as="geometry" />
        </mxCell>
        <mxCell id="BulkSB2tPgcpnhCntLE--31" value="S3" style="points=[[0,0,0],[0.25,0,0],[0.5,0,0],[0.75,0,0],[1,0,0],[0,1,0],[0.25,1,0],[0.5,1,0],[0.75,1,0],[1,1,0],[0,0.25,0],[0,0.5,0],[0,0.75,0],[1,0.25,0],[1,0.5,0],[1,0.75,0]];outlineConnect=0;fontColor=#232F3E;gradientColor=#60A337;gradientDirection=north;fillColor=#277116;strokeColor=#ffffff;dashed=0;verticalLabelPosition=bottom;verticalAlign=top;align=center;html=1;fontSize=12;fontStyle=0;aspect=fixed;shape=mxgraph.aws4.resourceIcon;resIcon=mxgraph.aws4.s3;" vertex="1" parent="1">
          <mxGeometry x="240" y="850" width="78" height="78" as="geometry" />
        </mxCell>
        <mxCell id="BulkSB2tPgcpnhCntLE--32" value="EC2" style="outlineConnect=0;fontColor=#232F3E;gradientColor=none;fillColor=#D86613;strokeColor=none;dashed=0;verticalLabelPosition=bottom;verticalAlign=top;align=center;html=1;fontSize=12;fontStyle=0;aspect=fixed;pointerEvents=1;shape=mxgraph.aws4.instance2;" vertex="1" parent="1">
          <mxGeometry x="469.25" y="548.5" width="48" height="48" as="geometry" />
        </mxCell>
        <mxCell id="BulkSB2tPgcpnhCntLE--33" value="Endpoints" style="outlineConnect=0;fontColor=#232F3E;gradientColor=none;fillColor=#5A30B5;strokeColor=none;dashed=0;verticalLabelPosition=bottom;verticalAlign=top;align=center;html=1;fontSize=12;fontStyle=0;aspect=fixed;pointerEvents=1;shape=mxgraph.aws4.endpoints;" vertex="1" parent="1">
          <mxGeometry x="600" y="530" width="78" height="78" as="geometry" />
        </mxCell>
        <mxCell id="BulkSB2tPgcpnhCntLE--35" value="" style="edgeStyle=orthogonalEdgeStyle;html=1;endArrow=none;elbow=vertical;startArrow=block;startFill=1;strokeColor=#545B64;rounded=0;exitX=1;exitY=0.5;exitDx=0;exitDy=0;" edge="1" parent="1" source="BulkSB2tPgcpnhCntLE--20" target="BulkSB2tPgcpnhCntLE--27">
          <mxGeometry width="100" relative="1" as="geometry">
            <mxPoint x="-160" y="310" as="sourcePoint" />
            <mxPoint x="-60" y="310" as="targetPoint" />
          </mxGeometry>
        </mxCell>
        <mxCell id="BulkSB2tPgcpnhCntLE--38" value="" style="edgeStyle=orthogonalEdgeStyle;rounded=0;orthogonalLoop=1;jettySize=auto;html=1;" edge="1" parent="1" source="BulkSB2tPgcpnhCntLE--7" target="BulkSB2tPgcpnhCntLE--27">
          <mxGeometry relative="1" as="geometry" />
        </mxCell>
        <mxCell id="BulkSB2tPgcpnhCntLE--7" value="Public subnet&lt;br&gt;Router table" style="outlineConnect=0;dashed=0;verticalLabelPosition=bottom;verticalAlign=top;align=center;html=1;shape=mxgraph.aws3.route_table;fillColor=#d5e8d4;strokeColor=#82b366;" vertex="1" parent="1">
          <mxGeometry x="-16.5" y="261.25" width="75" height="69" as="geometry" />
        </mxCell>
        <mxCell id="BulkSB2tPgcpnhCntLE--23" value="&lt;span style=&quot;color: rgb(0 , 0 , 0)&quot;&gt;Private subnet&lt;br&gt;Router table&lt;/span&gt;" style="outlineConnect=0;fontColor=#232F3E;gradientColor=none;fillColor=#5A30B5;strokeColor=none;dashed=0;verticalLabelPosition=bottom;verticalAlign=top;align=center;html=1;fontSize=12;fontStyle=0;aspect=fixed;pointerEvents=1;shape=mxgraph.aws4.route_table;" vertex="1" parent="1">
          <mxGeometry x="-18" y="520.5" width="78" height="76" as="geometry" />
        </mxCell>
        <mxCell id="BulkSB2tPgcpnhCntLE--39" value="" style="edgeStyle=orthogonalEdgeStyle;rounded=0;orthogonalLoop=1;jettySize=auto;html=1;entryX=1;entryY=0.5;entryDx=0;entryDy=0;entryPerimeter=0;" edge="1" parent="1" source="BulkSB2tPgcpnhCntLE--34" target="BulkSB2tPgcpnhCntLE--7">
          <mxGeometry relative="1" as="geometry">
            <mxPoint x="-36.5" y="410.11470588235295" as="sourcePoint" />
            <mxPoint x="-150" y="409.9970588235295" as="targetPoint" />
          </mxGeometry>
        </mxCell>
        <mxCell id="BulkSB2tPgcpnhCntLE--34" value="EC2" style="outlineConnect=0;fontColor=#232F3E;gradientColor=none;fillColor=#D86613;strokeColor=none;dashed=0;verticalLabelPosition=bottom;verticalAlign=top;align=center;html=1;fontSize=12;fontStyle=0;aspect=fixed;pointerEvents=1;shape=mxgraph.aws4.instance2;" vertex="1" parent="1">
          <mxGeometry x="270" y="272.75" width="48" height="48" as="geometry" />
        </mxCell>
      </root>
    </mxGraphModel>
  </diagram>
</mxfile>
